<?xml version="1.0" encoding="utf-8"?>
<!-- Generator: Adobe Illustrator 25.4.1, SVG Export Plug-In . SVG Version: 6.00 Build 0)  -->
<svg version="1.1" id="Layer_1" xmlns="http://www.w3.org/2000/svg" xmlns:xlink="http://www.w3.org/1999/xlink" x="0px" y="0px"
	 viewBox="0 0 224.9 36.4" style="enable-background:new 0 0 224.9 36.4;" xml:space="preserve">
<style type="text/css">
	.st0{fill:#FFFFFF;}
	.st1{fill:#46A8DF;}
</style>
<g>
	<g>
		<g>
			<path class="st0" d="M1.8,29.6V12.9h6.5c1.5,0,2.7,0.2,3.7,0.7c1,0.5,1.8,1.1,2.4,2c0.6,0.9,0.8,1.9,0.8,3.1
				c0,1.2-0.3,2.2-0.8,3.1c-0.6,0.9-1.4,1.5-2.4,2c-1,0.5-2.3,0.7-3.7,0.7H3.1l1.1-1.1v6.2H1.8z M4.2,23.6l-1.1-1.2h5.1
				c1.5,0,2.7-0.3,3.5-1c0.8-0.7,1.2-1.6,1.2-2.8s-0.4-2.1-1.2-2.8c-0.8-0.7-1.9-1-3.5-1H3.1l1.1-1.2V23.6z"/>
			<path class="st0" d="M18,29.6V16.9h2.2v3.4L20,19.5c0.3-0.9,0.9-1.5,1.8-2c0.8-0.5,1.8-0.7,3.1-0.7V19c-0.1,0-0.2,0-0.3,0
				c-0.1,0-0.2,0-0.3,0c-1.2,0-2.2,0.4-2.9,1.1c-0.7,0.7-1.1,1.8-1.1,3.2v6.3H18z"/>
			<path class="st0" d="M32.6,29.7c-1.3,0-2.4-0.3-3.4-0.8c-1-0.6-1.8-1.3-2.3-2.3c-0.6-1-0.9-2.1-0.9-3.3c0-1.3,0.3-2.4,0.9-3.3
				c0.6-1,1.4-1.7,2.3-2.3c1-0.5,2.1-0.8,3.4-0.8c1.3,0,2.4,0.3,3.4,0.8c1,0.5,1.8,1.3,2.3,2.3c0.6,1,0.8,2.1,0.8,3.4
				c0,1.3-0.3,2.4-0.8,3.3c-0.6,1-1.3,1.7-2.3,2.3C35,29.4,33.9,29.7,32.6,29.7z M32.6,27.7c0.8,0,1.5-0.2,2.2-0.5
				c0.6-0.4,1.1-0.9,1.5-1.6c0.4-0.7,0.5-1.5,0.5-2.4c0-0.9-0.2-1.7-0.5-2.4c-0.4-0.7-0.9-1.2-1.5-1.5c-0.6-0.4-1.4-0.5-2.2-0.5
				s-1.5,0.2-2.2,0.5c-0.6,0.4-1.1,0.9-1.5,1.5c-0.4,0.7-0.6,1.4-0.6,2.4c0,0.9,0.2,1.7,0.6,2.4c0.4,0.7,0.9,1.2,1.5,1.6
				C31.1,27.5,31.8,27.7,32.6,27.7z"/>
			<path class="st0" d="M47.4,29.1c-1.2,0-2.3-0.3-3.3-0.8c-1-0.5-1.7-1.2-2.3-2.2c-0.6-0.9-0.8-2-0.8-3.2c0-1.2,0.3-2.3,0.8-3.2
				c0.6-0.9,1.3-1.6,2.3-2.1c1-0.5,2.1-0.8,3.3-0.8c1.1,0,2.1,0.2,3,0.7c0.9,0.4,1.6,1.1,2.1,2c0.5,0.9,0.8,2.1,0.8,3.4
				c0,1.4-0.3,2.5-0.8,3.4c-0.5,0.9-1.2,1.6-2.1,2C49.4,28.8,48.4,29.1,47.4,29.1z M47.7,34.4c-1.2,0-2.3-0.2-3.4-0.5
				c-1.1-0.3-2-0.8-2.7-1.4l1.1-1.8c0.6,0.5,1.3,0.9,2.2,1.2c0.9,0.3,1.8,0.4,2.7,0.4c1.5,0,2.6-0.4,3.3-1.1
				c0.7-0.7,1.1-1.8,1.1-3.2v-2.7l0.2-2.5L52,20.4v-3.5h2.2v10.9c0,2.2-0.6,3.9-1.7,4.9C51.4,33.8,49.8,34.4,47.7,34.4z M47.6,27.1
				c0.8,0,1.6-0.2,2.2-0.5c0.7-0.3,1.2-0.8,1.5-1.5c0.4-0.6,0.6-1.3,0.6-2.1s-0.2-1.5-0.6-2.1c-0.4-0.6-0.9-1.1-1.5-1.4
				c-0.7-0.3-1.4-0.5-2.2-0.5c-0.8,0-1.6,0.2-2.3,0.5c-0.7,0.3-1.2,0.8-1.6,1.4c-0.4,0.6-0.6,1.3-0.6,2.1s0.2,1.5,0.6,2.1
				c0.4,0.6,0.9,1.1,1.6,1.5C46,26.9,46.8,27.1,47.6,27.1z"/>
			<path class="st0" d="M58.3,29.6V16.9h2.2v3.4l-0.2-0.9c0.3-0.9,0.9-1.5,1.8-2c0.8-0.5,1.8-0.7,3.1-0.7V19c-0.1,0-0.2,0-0.3,0
				c-0.1,0-0.2,0-0.3,0c-1.2,0-2.2,0.4-2.9,1.1c-0.7,0.7-1.1,1.8-1.1,3.2v6.3H58.3z"/>
			<path class="st0" d="M70.5,29.7c-0.9,0-1.8-0.2-2.5-0.5c-0.7-0.3-1.3-0.8-1.6-1.3c-0.4-0.6-0.6-1.2-0.6-1.9
				c0-0.7,0.2-1.3,0.5-1.9c0.3-0.6,0.9-1,1.6-1.3c0.7-0.3,1.7-0.5,3-0.5h4v1.6H71c-1.1,0-1.9,0.2-2.3,0.6c-0.4,0.4-0.6,0.8-0.6,1.4
				c0,0.6,0.2,1.1,0.7,1.5c0.5,0.4,1.2,0.6,2.1,0.6c0.9,0,1.6-0.2,2.3-0.6c0.6-0.4,1.1-0.9,1.4-1.7l0.5,1.6
				c-0.3,0.7-0.8,1.3-1.6,1.8C72.6,29.5,71.6,29.7,70.5,29.7z M74.6,29.6v-2.7l-0.1-0.5v-4.6c0-1-0.3-1.7-0.8-2.3
				c-0.6-0.5-1.4-0.8-2.5-0.8c-0.7,0-1.5,0.1-2.2,0.4c-0.7,0.2-1.3,0.6-1.8,1l-1-1.7c0.7-0.5,1.4-0.9,2.4-1.2
				c0.9-0.3,1.9-0.4,2.9-0.4c1.7,0,3.1,0.4,4,1.3c0.9,0.8,1.4,2.1,1.4,3.9v7.6H74.6z"/>
			<path class="st0" d="M96.6,16.8c1,0,1.9,0.2,2.7,0.6c0.8,0.4,1.4,1,1.8,1.8c0.4,0.8,0.7,1.8,0.7,3.1v7.3h-2.3v-7
				c0-1.2-0.3-2.1-0.9-2.8c-0.6-0.6-1.4-0.9-2.4-0.9c-0.8,0-1.4,0.2-2,0.5c-0.6,0.3-1,0.8-1.3,1.4c-0.3,0.6-0.5,1.4-0.5,2.3v6.5
				h-2.3v-7c0-1.2-0.3-2.1-0.8-2.8c-0.6-0.6-1.4-0.9-2.4-0.9c-0.7,0-1.4,0.2-2,0.5c-0.6,0.3-1,0.8-1.3,1.4c-0.3,0.6-0.5,1.4-0.5,2.3
				v6.5h-2.3V16.9H83v3.4l-0.4-0.9c0.4-0.8,1-1.5,1.8-1.9c0.8-0.5,1.8-0.7,2.9-0.7c1.2,0,2.3,0.3,3.1,0.9c0.9,0.6,1.4,1.5,1.7,2.7
				L91.3,20c0.4-1,1.1-1.8,2-2.3C94.2,17.1,95.3,16.8,96.6,16.8z"/>
			<path class="st0" d="M121.6,16.8c1,0,1.9,0.2,2.7,0.6c0.8,0.4,1.4,1,1.8,1.8c0.4,0.8,0.7,1.8,0.7,3.1v7.3h-2.3v-7
				c0-1.2-0.3-2.1-0.9-2.8c-0.6-0.6-1.4-0.9-2.4-0.9c-0.8,0-1.4,0.2-2,0.5c-0.6,0.3-1,0.8-1.3,1.4c-0.3,0.6-0.5,1.4-0.5,2.3v6.5
				h-2.3v-7c0-1.2-0.3-2.1-0.8-2.8c-0.6-0.6-1.4-0.9-2.4-0.9c-0.7,0-1.4,0.2-2,0.5c-0.6,0.3-1,0.8-1.3,1.4c-0.3,0.6-0.5,1.4-0.5,2.3
				v6.5h-2.3V16.9h2.2v3.4l-0.4-0.9c0.4-0.8,1-1.5,1.8-1.9c0.8-0.5,1.8-0.7,2.9-0.7c1.2,0,2.3,0.3,3.1,0.9c0.9,0.6,1.4,1.5,1.7,2.7
				l-0.9-0.4c0.4-1,1.1-1.8,2-2.3C119.2,17.1,120.3,16.8,121.6,16.8z"/>
			<path class="st0" d="M130.7,29.6V16.9h2.3v12.7H130.7z"/>
			<path class="st0" d="M143.9,16.8c1,0,1.9,0.2,2.7,0.6c0.8,0.4,1.4,1,1.9,1.8c0.4,0.8,0.7,1.8,0.7,3.1v7.3h-2.3v-7
				c0-1.2-0.3-2.1-0.9-2.8c-0.6-0.6-1.4-0.9-2.5-0.9c-0.8,0-1.5,0.2-2.1,0.5c-0.6,0.3-1.1,0.8-1.4,1.4c-0.3,0.6-0.5,1.4-0.5,2.3v6.5
				h-2.3V16.9h2.2v3.4l-0.4-0.9c0.4-0.8,1.1-1.5,1.9-1.9C141.7,17,142.7,16.8,143.9,16.8z"/>
			<path class="st0" d="M158.4,29.1c-1.2,0-2.3-0.3-3.3-0.8c-1-0.5-1.7-1.2-2.3-2.2c-0.6-0.9-0.8-2-0.8-3.2c0-1.2,0.3-2.3,0.8-3.2
				c0.6-0.9,1.3-1.6,2.3-2.1c1-0.5,2.1-0.8,3.3-0.8c1.1,0,2.1,0.2,3,0.7c0.9,0.4,1.6,1.1,2.1,2c0.5,0.9,0.8,2.1,0.8,3.4
				c0,1.4-0.3,2.5-0.8,3.4s-1.2,1.6-2.1,2C160.4,28.8,159.5,29.1,158.4,29.1z M158.7,34.4c-1.2,0-2.3-0.2-3.4-0.5
				c-1.1-0.3-2-0.8-2.7-1.4l1.1-1.8c0.6,0.5,1.3,0.9,2.2,1.2c0.9,0.3,1.8,0.4,2.7,0.4c1.5,0,2.6-0.4,3.3-1.1
				c0.7-0.7,1.1-1.8,1.1-3.2v-2.7l0.2-2.5l-0.1-2.5v-3.5h2.2v10.9c0,2.2-0.6,3.9-1.7,4.9C162.4,33.8,160.8,34.4,158.7,34.4z
				 M158.6,27.1c0.8,0,1.6-0.2,2.2-0.5c0.7-0.3,1.2-0.8,1.5-1.5c0.4-0.6,0.6-1.3,0.6-2.1s-0.2-1.5-0.6-2.1c-0.4-0.6-0.9-1.1-1.5-1.4
				c-0.7-0.3-1.4-0.5-2.2-0.5c-0.8,0-1.6,0.2-2.3,0.5c-0.7,0.3-1.2,0.8-1.6,1.4c-0.4,0.6-0.6,1.3-0.6,2.1s0.2,1.5,0.6,2.1
				c0.4,0.6,0.9,1.1,1.6,1.5C157,26.9,157.8,27.1,158.6,27.1z"/>
			<path class="st0" d="M169.9,29.7c-0.4,0-0.8-0.2-1.1-0.5c-0.3-0.3-0.5-0.7-0.5-1.2c0-0.5,0.2-0.9,0.5-1.2
				c0.3-0.3,0.7-0.4,1.1-0.4c0.4,0,0.8,0.1,1.1,0.4c0.3,0.3,0.5,0.7,0.5,1.2c0,0.5-0.2,0.9-0.5,1.2
				C170.6,29.6,170.3,29.7,169.9,29.7z"/>
			<path class="st0" d="M179.6,29.7c-1.3,0-2.4-0.3-3.4-0.8c-1-0.6-1.8-1.3-2.3-2.3c-0.6-1-0.8-2.1-0.8-3.3c0-1.2,0.3-2.3,0.8-3.3
				c0.6-1,1.3-1.7,2.3-2.3c1-0.5,2.1-0.8,3.4-0.8c1.1,0,2.1,0.2,3,0.7c0.9,0.4,1.6,1.1,2.1,2l-1.7,1.1c-0.4-0.6-0.9-1.1-1.5-1.4
				c-0.6-0.3-1.2-0.4-1.9-0.4c-0.8,0-1.6,0.2-2.2,0.5c-0.6,0.4-1.2,0.9-1.5,1.5c-0.4,0.7-0.6,1.4-0.6,2.3s0.2,1.7,0.6,2.3
				c0.4,0.7,0.9,1.2,1.5,1.5c0.6,0.4,1.4,0.5,2.2,0.5c0.7,0,1.3-0.1,1.9-0.4c0.6-0.3,1.1-0.7,1.5-1.4l1.7,1.1
				c-0.5,0.9-1.2,1.5-2.1,2C181.7,29.5,180.7,29.7,179.6,29.7z"/>
			<path class="st0" d="M192.5,29.7c-1.3,0-2.4-0.3-3.4-0.8c-1-0.6-1.7-1.3-2.3-2.3c-0.6-1-0.8-2.1-0.8-3.3c0-1.2,0.3-2.3,0.8-3.3
				c0.6-1,1.3-1.7,2.3-2.3c1-0.5,2.1-0.8,3.4-0.8c1.2,0,2.4,0.3,3.3,0.8c1,0.5,1.8,1.3,2.3,2.2c0.6,1,0.8,2.1,0.8,3.3
				c0,1.2-0.3,2.3-0.8,3.3c-0.6,1-1.3,1.7-2.3,2.3C194.9,29.5,193.8,29.7,192.5,29.7z M192.5,27.7c0.8,0,1.5-0.2,2.2-0.5
				c0.6-0.4,1.1-0.9,1.5-1.5c0.4-0.7,0.5-1.4,0.5-2.3c0-0.9-0.2-1.7-0.5-2.3c-0.4-0.7-0.9-1.2-1.5-1.5c-0.6-0.4-1.4-0.5-2.2-0.5
				c-0.8,0-1.5,0.2-2.1,0.5c-0.6,0.4-1.1,0.9-1.5,1.5c-0.4,0.7-0.6,1.4-0.6,2.3c0,0.9,0.2,1.7,0.6,2.3c0.4,0.7,0.9,1.2,1.5,1.5
				C191,27.6,191.7,27.7,192.5,27.7z"/>
			<path class="st0" d="M217.5,17c1,0,1.9,0.2,2.7,0.6c0.8,0.4,1.4,1,1.8,1.8c0.4,0.8,0.6,1.8,0.6,3v7.2h-2.3v-6.9
				c0-1.2-0.3-2.1-0.8-2.7c-0.6-0.6-1.4-0.9-2.4-0.9c-0.8,0-1.4,0.2-2,0.5c-0.6,0.3-1,0.8-1.3,1.4c-0.3,0.6-0.5,1.4-0.5,2.3v6.4
				h-2.3v-6.9c0-1.2-0.3-2.1-0.8-2.7c-0.6-0.6-1.4-0.9-2.4-0.9c-0.7,0-1.4,0.2-2,0.5c-0.6,0.3-1,0.8-1.3,1.4
				c-0.3,0.6-0.5,1.4-0.5,2.3v6.4h-2.3V17.1h2.2v3.3l-0.4-0.8c0.4-0.8,1-1.5,1.8-1.9c0.8-0.5,1.8-0.7,2.9-0.7c1.2,0,2.2,0.3,3.1,0.9
				c0.9,0.6,1.4,1.5,1.7,2.7l-0.9-0.4c0.4-1,1-1.7,2-2.3C215.2,17.2,216.3,17,217.5,17z"/>
		</g>
	</g>
	<g>
		<path class="st1" d="M140.8,6.2c-5.1-5.3-13.7-4.4-17.6,0c0.3,0.4,0.7,0.8,1,1.2c2.2-2.1,4.7-3.2,7.7-3.2c3,0,5.5,1.1,7.7,3.2
			C140.1,6.9,140.4,6.5,140.8,6.2z"/>
		<path class="st1" d="M126.8,9.8c1.5-1.4,3.2-2.1,5.2-2.1c2,0,3.7,0.8,5.1,2c0.4-0.4,0.8-0.7,1.2-1.1c-3.6-3.7-9.7-3.3-12.6,0
			C126.1,9.1,126.4,9.4,126.8,9.8z"/>
		<path class="st1" d="M135.7,11.2c-1.8-2.1-5.8-2.1-7.5,0c0.4,0.4,0.7,0.8,1.1,1.1c1.9-1.4,3.1-1.4,5.4,0
			C135,12,135.4,11.6,135.7,11.2z"/>
		<path class="st1" d="M132,15.4c0.6,0,1-0.4,1-1c0-0.6-0.4-1-1-1c-0.5,0-1,0.5-1,1C131,14.9,131.4,15.4,132,15.4z"/>
		<path class="st1" d="M140.8,6.2c-0.4,0.4-0.7,0.7-1.1,1.1c-2.2-2-4.7-3.2-7.7-3.2c-3,0-5.5,1.1-7.7,3.2c-0.3-0.4-0.7-0.8-1-1.2
			C127.1,1.7,135.7,0.9,140.8,6.2z"/>
		<path class="st1" d="M126.8,9.8c-0.4-0.4-0.7-0.8-1.1-1.1c2.9-3.3,9-3.7,12.6,0c-0.4,0.3-0.8,0.7-1.2,1.1c-1.4-1.3-3.1-2.1-5.1-2
			C130,7.7,128.3,8.5,126.8,9.8z"/>
		<path class="st1" d="M135.7,11.2c-0.4,0.4-0.7,0.8-1.1,1.1c-2.2-1.4-3.4-1.4-5.4,0c-0.4-0.4-0.7-0.8-1.1-1.1
			C129.9,9.2,133.9,9.1,135.7,11.2z"/>
		<path class="st1" d="M132,15.4c-0.6,0-1-0.4-1-1c0-0.5,0.5-1,1-1c0.5,0,1,0.4,1,1C133,14.9,132.5,15.4,132,15.4z"/>
	</g>
</g>
</svg>
